<mxfile host="app.diagrams.net" modified="2023-12-23T10:01:59.933Z" agent="Mozilla/5.0 (Windows NT 10.0; Win64; x64) AppleWebKit/537.36 (KHTML, like Gecko) Chrome/118.0.0.0 YaBrowser/23.11.0.0 Safari/537.36" etag="uMkQCEoXvToZznWqaCTg" version="22.1.11" type="device">
  <diagram name="Страница — 1" id="JzbT3yrNelol7UxY1adC">
    <mxGraphModel dx="-25" dy="833" grid="0" gridSize="10" guides="1" tooltips="1" connect="1" arrows="1" fold="1" page="0" pageScale="1" pageWidth="827" pageHeight="1169" math="0" shadow="0">
      <root>
        <mxCell id="0" />
        <mxCell id="1" parent="0" />
        <mxCell id="x7lMaYB_F5m9y5hEJGSU-1" style="edgeStyle=orthogonalEdgeStyle;rounded=0;orthogonalLoop=1;jettySize=auto;html=1;" edge="1" parent="1" source="x7lMaYB_F5m9y5hEJGSU-3" target="x7lMaYB_F5m9y5hEJGSU-11">
          <mxGeometry relative="1" as="geometry" />
        </mxCell>
        <mxCell id="x7lMaYB_F5m9y5hEJGSU-2" style="edgeStyle=orthogonalEdgeStyle;rounded=0;orthogonalLoop=1;jettySize=auto;html=1;" edge="1" parent="1" source="x7lMaYB_F5m9y5hEJGSU-3" target="x7lMaYB_F5m9y5hEJGSU-21">
          <mxGeometry relative="1" as="geometry" />
        </mxCell>
        <mxCell id="x7lMaYB_F5m9y5hEJGSU-3" value="Гость" style="shape=umlActor;verticalLabelPosition=bottom;verticalAlign=top;html=1;outlineConnect=0;" vertex="1" parent="1">
          <mxGeometry x="1555.6666666666679" y="133.33333333333394" width="30" height="60" as="geometry" />
        </mxCell>
        <mxCell id="x7lMaYB_F5m9y5hEJGSU-4" style="edgeStyle=orthogonalEdgeStyle;rounded=0;orthogonalLoop=1;jettySize=auto;html=1;" edge="1" parent="1" source="x7lMaYB_F5m9y5hEJGSU-7" target="x7lMaYB_F5m9y5hEJGSU-3">
          <mxGeometry relative="1" as="geometry" />
        </mxCell>
        <mxCell id="x7lMaYB_F5m9y5hEJGSU-5" style="edgeStyle=orthogonalEdgeStyle;rounded=0;orthogonalLoop=1;jettySize=auto;html=1;entryX=1;entryY=0.5;entryDx=0;entryDy=0;" edge="1" parent="1" source="x7lMaYB_F5m9y5hEJGSU-7" target="x7lMaYB_F5m9y5hEJGSU-13">
          <mxGeometry relative="1" as="geometry" />
        </mxCell>
        <mxCell id="x7lMaYB_F5m9y5hEJGSU-6" style="edgeStyle=orthogonalEdgeStyle;rounded=0;orthogonalLoop=1;jettySize=auto;html=1;" edge="1" parent="1" source="x7lMaYB_F5m9y5hEJGSU-7" target="x7lMaYB_F5m9y5hEJGSU-19">
          <mxGeometry relative="1" as="geometry" />
        </mxCell>
        <mxCell id="x7lMaYB_F5m9y5hEJGSU-7" value="Авторизованный" style="shape=umlActor;verticalLabelPosition=bottom;verticalAlign=top;html=1;outlineConnect=0;" vertex="1" parent="1">
          <mxGeometry x="1555.6666666666679" y="273.33333333333394" width="30" height="60" as="geometry" />
        </mxCell>
        <mxCell id="x7lMaYB_F5m9y5hEJGSU-8" style="edgeStyle=orthogonalEdgeStyle;rounded=0;orthogonalLoop=1;jettySize=auto;html=1;" edge="1" parent="1" source="x7lMaYB_F5m9y5hEJGSU-10" target="x7lMaYB_F5m9y5hEJGSU-7">
          <mxGeometry relative="1" as="geometry" />
        </mxCell>
        <mxCell id="x7lMaYB_F5m9y5hEJGSU-9" style="edgeStyle=orthogonalEdgeStyle;rounded=0;orthogonalLoop=1;jettySize=auto;html=1;" edge="1" parent="1" source="x7lMaYB_F5m9y5hEJGSU-10" target="x7lMaYB_F5m9y5hEJGSU-22">
          <mxGeometry relative="1" as="geometry" />
        </mxCell>
        <mxCell id="x7lMaYB_F5m9y5hEJGSU-10" value="Менеджер" style="shape=umlActor;verticalLabelPosition=bottom;verticalAlign=top;html=1;outlineConnect=0;" vertex="1" parent="1">
          <mxGeometry x="1555.6666666666679" y="428.33333333333394" width="30" height="60" as="geometry" />
        </mxCell>
        <mxCell id="x7lMaYB_F5m9y5hEJGSU-11" value="Авторизация" style="ellipse;whiteSpace=wrap;html=1;" vertex="1" parent="1">
          <mxGeometry x="1366.6666666666679" y="128.33333333333394" width="140" height="70" as="geometry" />
        </mxCell>
        <mxCell id="x7lMaYB_F5m9y5hEJGSU-12" value="Подтверждение почты" style="ellipse;whiteSpace=wrap;html=1;" vertex="1" parent="1">
          <mxGeometry x="1146.6666666666679" y="128.33333333333394" width="140" height="70" as="geometry" />
        </mxCell>
        <mxCell id="x7lMaYB_F5m9y5hEJGSU-13" value="Редактировать профиль" style="ellipse;whiteSpace=wrap;html=1;" vertex="1" parent="1">
          <mxGeometry x="1366.6666666666679" y="268.33333333333394" width="140" height="70" as="geometry" />
        </mxCell>
        <mxCell id="x7lMaYB_F5m9y5hEJGSU-14" value="Выйти из аккаунта" style="ellipse;whiteSpace=wrap;html=1;" vertex="1" parent="1">
          <mxGeometry x="1366.6666666666679" y="373.33333333333394" width="140" height="70" as="geometry" />
        </mxCell>
        <mxCell id="x7lMaYB_F5m9y5hEJGSU-15" value="Изменить пароль" style="ellipse;whiteSpace=wrap;html=1;" vertex="1" parent="1">
          <mxGeometry x="1146.6666666666679" y="268.33333333333394" width="140" height="70" as="geometry" />
        </mxCell>
        <mxCell id="x7lMaYB_F5m9y5hEJGSU-16" value="&amp;lt;&amp;lt;include&amp;gt;&amp;gt;" style="endArrow=open;endSize=12;dashed=1;html=1;rounded=0;exitX=0;exitY=0.5;exitDx=0;exitDy=0;entryX=1;entryY=0.5;entryDx=0;entryDy=0;" edge="1" parent="1" source="x7lMaYB_F5m9y5hEJGSU-11" target="x7lMaYB_F5m9y5hEJGSU-12">
          <mxGeometry width="160" relative="1" as="geometry">
            <mxPoint x="1486.6666666666679" y="393.33333333333394" as="sourcePoint" />
            <mxPoint x="1646.6666666666679" y="393.33333333333394" as="targetPoint" />
          </mxGeometry>
        </mxCell>
        <mxCell id="x7lMaYB_F5m9y5hEJGSU-17" value="&amp;lt;&amp;lt;include&amp;gt;&amp;gt;" style="endArrow=open;endSize=12;dashed=1;html=1;rounded=0;exitX=0.5;exitY=1;exitDx=0;exitDy=0;" edge="1" parent="1" source="x7lMaYB_F5m9y5hEJGSU-13" target="x7lMaYB_F5m9y5hEJGSU-14">
          <mxGeometry width="160" relative="1" as="geometry">
            <mxPoint x="1486.6666666666679" y="353.33333333333394" as="sourcePoint" />
            <mxPoint x="1336.6666666666679" y="173.33333333333394" as="targetPoint" />
          </mxGeometry>
        </mxCell>
        <mxCell id="x7lMaYB_F5m9y5hEJGSU-18" value="&amp;lt;&amp;lt;include&amp;gt;&amp;gt;" style="endArrow=open;endSize=12;dashed=1;html=1;rounded=0;exitX=0;exitY=0.5;exitDx=0;exitDy=0;entryX=1;entryY=0.5;entryDx=0;entryDy=0;" edge="1" parent="1" source="x7lMaYB_F5m9y5hEJGSU-13" target="x7lMaYB_F5m9y5hEJGSU-15">
          <mxGeometry width="160" relative="1" as="geometry">
            <mxPoint x="1386.6666666666679" y="183.33333333333394" as="sourcePoint" />
            <mxPoint x="1346.6666666666679" y="183.33333333333394" as="targetPoint" />
          </mxGeometry>
        </mxCell>
        <mxCell id="x7lMaYB_F5m9y5hEJGSU-19" value="Купить билет на представление" style="ellipse;whiteSpace=wrap;html=1;" vertex="1" parent="1">
          <mxGeometry x="1636.6666666666679" y="268.33333333333394" width="140" height="70" as="geometry" />
        </mxCell>
        <mxCell id="x7lMaYB_F5m9y5hEJGSU-20" value="&amp;lt;&amp;lt;include&amp;gt;&amp;gt;" style="endArrow=open;endSize=12;dashed=1;html=1;rounded=0;exitX=0.5;exitY=0;exitDx=0;exitDy=0;entryX=0.5;entryY=1;entryDx=0;entryDy=0;" edge="1" parent="1" source="x7lMaYB_F5m9y5hEJGSU-15" target="x7lMaYB_F5m9y5hEJGSU-12">
          <mxGeometry width="160" relative="1" as="geometry">
            <mxPoint x="1376.6666666666679" y="173.33333333333394" as="sourcePoint" />
            <mxPoint x="1336.6666666666679" y="173.33333333333394" as="targetPoint" />
          </mxGeometry>
        </mxCell>
        <mxCell id="x7lMaYB_F5m9y5hEJGSU-21" value="Просмотреть список актеров" style="ellipse;whiteSpace=wrap;html=1;" vertex="1" parent="1">
          <mxGeometry x="1636.6666666666679" y="128.33333333333394" width="140" height="70" as="geometry" />
        </mxCell>
        <mxCell id="x7lMaYB_F5m9y5hEJGSU-22" value="Работа с Актерами" style="ellipse;whiteSpace=wrap;html=1;" vertex="1" parent="1">
          <mxGeometry x="1636.6666666666679" y="423.33333333333394" width="140" height="70" as="geometry" />
        </mxCell>
        <mxCell id="x7lMaYB_F5m9y5hEJGSU-23" value="Найти определенного актера" style="ellipse;whiteSpace=wrap;html=1;" vertex="1" parent="1">
          <mxGeometry x="1636.6666666666679" y="-6.66666666666606" width="140" height="70" as="geometry" />
        </mxCell>
        <mxCell id="x7lMaYB_F5m9y5hEJGSU-24" value="&amp;lt;&amp;lt;include&amp;gt;&amp;gt;" style="endArrow=open;endSize=12;dashed=1;html=1;rounded=0;exitX=0.5;exitY=0;exitDx=0;exitDy=0;entryX=0.5;entryY=1;entryDx=0;entryDy=0;" edge="1" parent="1" source="x7lMaYB_F5m9y5hEJGSU-21" target="x7lMaYB_F5m9y5hEJGSU-23">
          <mxGeometry width="160" relative="1" as="geometry">
            <mxPoint x="1216.6666666666679" y="278.33333333333394" as="sourcePoint" />
            <mxPoint x="1216.6666666666679" y="208.33333333333394" as="targetPoint" />
          </mxGeometry>
        </mxCell>
        <mxCell id="x7lMaYB_F5m9y5hEJGSU-25" value="Удалить актера" style="ellipse;whiteSpace=wrap;html=1;" vertex="1" parent="1">
          <mxGeometry x="1796.6666666666679" y="338.33333333333394" width="140" height="70" as="geometry" />
        </mxCell>
        <mxCell id="x7lMaYB_F5m9y5hEJGSU-26" value="Создать актера" style="ellipse;whiteSpace=wrap;html=1;" vertex="1" parent="1">
          <mxGeometry x="1876.6666666666679" y="423.33333333333394" width="140" height="70" as="geometry" />
        </mxCell>
        <mxCell id="x7lMaYB_F5m9y5hEJGSU-27" value="Изменить актера" style="ellipse;whiteSpace=wrap;html=1;" vertex="1" parent="1">
          <mxGeometry x="1796.6666666666679" y="508.33333333333394" width="140" height="70" as="geometry" />
        </mxCell>
        <mxCell id="x7lMaYB_F5m9y5hEJGSU-28" value="&amp;lt;&amp;lt;include&amp;gt;&amp;gt;" style="endArrow=open;endSize=12;dashed=1;html=1;rounded=0;exitX=1;exitY=0;exitDx=0;exitDy=0;entryX=0;entryY=0.5;entryDx=0;entryDy=0;" edge="1" parent="1" source="x7lMaYB_F5m9y5hEJGSU-22" target="x7lMaYB_F5m9y5hEJGSU-25">
          <mxGeometry width="160" relative="1" as="geometry">
            <mxPoint x="1376.6666666666679" y="278.33333333333394" as="sourcePoint" />
            <mxPoint x="1296.6666666666679" y="278.33333333333394" as="targetPoint" />
          </mxGeometry>
        </mxCell>
        <mxCell id="x7lMaYB_F5m9y5hEJGSU-29" value="&amp;lt;&amp;lt;include&amp;gt;&amp;gt;" style="endArrow=open;endSize=12;dashed=1;html=1;rounded=0;exitX=1;exitY=0.5;exitDx=0;exitDy=0;entryX=0;entryY=0.5;entryDx=0;entryDy=0;" edge="1" parent="1" source="x7lMaYB_F5m9y5hEJGSU-22" target="x7lMaYB_F5m9y5hEJGSU-26">
          <mxGeometry width="160" relative="1" as="geometry">
            <mxPoint x="1765.6666666666679" y="443.33333333333394" as="sourcePoint" />
            <mxPoint x="1866.6666666666679" y="458.33333333333394" as="targetPoint" />
          </mxGeometry>
        </mxCell>
        <mxCell id="x7lMaYB_F5m9y5hEJGSU-30" value="&amp;lt;&amp;lt;include&amp;gt;&amp;gt;" style="endArrow=open;endSize=12;dashed=1;html=1;rounded=0;exitX=1;exitY=1;exitDx=0;exitDy=0;entryX=0;entryY=0.5;entryDx=0;entryDy=0;" edge="1" parent="1" source="x7lMaYB_F5m9y5hEJGSU-22" target="x7lMaYB_F5m9y5hEJGSU-27">
          <mxGeometry width="160" relative="1" as="geometry">
            <mxPoint x="1775.6666666666679" y="453.33333333333394" as="sourcePoint" />
            <mxPoint x="1816.6666666666679" y="393.33333333333394" as="targetPoint" />
          </mxGeometry>
        </mxCell>
      </root>
    </mxGraphModel>
  </diagram>
</mxfile>
